<svg width="120" height="120" viewBox="0 0 120 120" fill="none" xmlns="http://www.w3.org/2000/svg">
<rect width="120" height="120" rx="30" fill="#F5F8FA"/>
<path d="M25.3952 81H15.5V34.9737L25.3952 44.4023V81Z" fill="black"/>
<path d="M45.5566 44.0301L15.5 15V27.7782L45.5566 57.4286L64.8522 39.1917V81H74.5V15L45.5566 44.0301Z" fill="black"/>
<path d="M104.5 75C104.5 91.5685 91.2924 105 75 105C58.7076 105 45.5 91.5685 45.5 75C45.5 58.4315 58.7076 45 75 45C91.2924 45 104.5 58.4315 104.5 75ZM54.35 75C54.35 86.598 63.5953 96 75 96C86.4047 96 95.65 86.598 95.65 75C95.65 63.402 86.4047 54 75 54C63.5953 54 54.35 63.402 54.35 75Z" fill="black"/>
</svg>
