<svg width="41" height="41" viewBox="0 0 41 41" fill="none" xmlns="http://www.w3.org/2000/svg">
<g clip-path="url(#clip0_72_826)">
<path d="M20.4 40.7437C31.4457 40.7437 40.4 31.7893 40.4 20.7437C40.4 9.69796 31.4457 0.743652 20.4 0.743652C9.3543 0.743652 0.399994 9.69796 0.399994 20.7437C0.399994 31.7893 9.3543 40.7437 20.4 40.7437Z" fill="black"/>
<path fill-rule="evenodd" clip-rule="evenodd" d="M9.45313 20.5326C15.2835 17.9924 19.1714 16.3177 21.1167 15.5086C26.6709 13.1984 27.825 12.7971 28.5772 12.7838C28.7427 12.7809 29.1126 12.8219 29.3522 13.0164C29.5546 13.1805 29.6103 13.4023 29.6369 13.558C29.6635 13.7136 29.6967 14.0682 29.6703 14.3453C29.3694 17.5078 28.067 25.1823 27.4044 28.7243C27.1241 30.2231 26.572 30.7256 26.0376 30.7748C24.8762 30.8816 23.9942 30.0072 22.8693 29.2698C21.1091 28.1159 20.1146 27.3977 18.406 26.2717C16.4314 24.9704 17.7114 24.2553 18.8368 23.0864C19.1313 22.7805 24.2486 18.126 24.3476 17.7037C24.36 17.6509 24.3715 17.4541 24.2546 17.3501C24.1376 17.2462 23.965 17.2817 23.8405 17.31C23.6639 17.35 20.8519 19.2087 15.4044 22.8859C14.6062 23.434 13.8832 23.7011 13.2355 23.6871C12.5213 23.6717 11.1477 23.2833 10.1265 22.9514C8.87403 22.5442 7.87857 22.329 7.96525 21.6375C8.0104 21.2774 8.50636 20.9091 9.45313 20.5326Z" fill="white"/>
</g>
<defs>
<clipPath id="clip0_72_826">
<rect width="40" height="40" fill="white" transform="translate(0.399994 0.743652)"/>
</clipPath>
</defs>
</svg>
